Quote:
Format : AVI
Format/Info : Audio Video Interleave
File size : 703 MiB
Duration : 3h 0mn
Overall bit rate : 544 Kbps

Video
ID : 0
Format : MPEG-4 Visual
Format profile : Simple@L3
Format settings, BVOP : No
Format settings, QPel : No
Format settings, GMC : No warppoints
Format settings, Matrix : Default (H.263)
Codec ID : XVID
Codec ID/Hint : XviD
Duration : 3h 0mn
Bit rate : 402 Kbps
Width : 608 pixels
Height : 256 pixels
Display aspect ratio : 2.35:1
Frame rate : 29.970 fps
Color space : YUV
Chroma subsampling : 4:2:0
Bit depth : 8 bits
Scan type : Progressive
Compression mode : Lossy
Bits/(Pixel*Frame) : 0.086
Stream size : 520 MiB (74%)
Writing library : XviD 1.1.2 (UTC 2006-11-01)

Audio
ID : 1
Format : MPEG Audio
Format version : Version 1
Format profile : Layer 3
Mode : Joint stereo
Mode extension : MS Stereo
Codec ID : 55
Codec ID/Hint : MP3
Duration : 3h 0mn
Bit rate mode : Constant
Bit rate : 128 Kbps
Channel(s) : 2 channels
Sampling rate : 48.0 KHz
Compression mode : Lossy
Stream size : 165 MiB (24%)
Alignment : Split accross interleaves
Interleave, duration : 24 ms (0.72 video frame)
Writing library : LAME3.98
 
http://img203.imageshack.us/img203/1170/45726531.jpg
 
http://img251.imageshack.us/img251/3001/89442857.jpg
 
http://img201.imageshack.us/img201/1525/34334543.jpg
 
http://img23.imageshack.us/img23/4761/99413913.jpg